<?xml version="1.0" encoding="utf-8"?>
<!-- Generator: Adobe Illustrator 23.0.0, SVG Export Plug-In . SVG Version: 6.00 Build 0)  -->
<svg version="1.1" id="Layer_1" xmlns="http://www.w3.org/2000/svg" xmlns:xlink="http://www.w3.org/1999/xlink" x="0px" y="0px"
	 viewBox="0 0 512 512" style="enable-background:new 0 0 512 512;" xml:space="preserve">
<style type="text/css">
	.st0{fill:#FFFFFF;}
</style>
<path class="st0" d="M277.3,43.8V21.3C277.3,9.6,267.8,0,256,0c-11.8,0-21.3,9.6-21.3,21.3v22.4C105.8,55.3,10.7,169.1,22.3,298
	c4.4,49,24.1,95.3,56.2,132.4c-22.8,11.3-36.8,34.9-35.9,60.2c0,11.8,9.6,21.3,21.3,21.3s21.3-9.6,21.3-21.3
	C85,477,95.4,465.5,109,464.4c1.5-0.3,2.9-0.7,4.3-1.3c84.1,65.2,201.6,65.2,285.7,0c1.2,0.6,2.5,1,3.9,1.4
	c13.7,0.9,24.2,12.5,23.9,26.2c0,11.8,9.6,21.3,21.3,21.3c11.8,0,21.3-9.6,21.3-21.3c1-25.4-13.1-49-35.9-60.2
	c84.7-97.8,74.1-245.7-23.7-330.4C372.6,67.8,326.3,48.1,277.3,43.8z M64,277.3c0-106,86-192,192-192s192,86,192,192
	s-86,192-192,192C150,469.2,64.1,383.3,64,277.3z"/>
<path class="st0" d="M409.9,0c-11.8,0-21.3,9.6-21.3,21.3s9.6,21.3,21.3,21.3c30.4-2.3,57,20.5,59.3,50.9c0.1,0.8,0.1,1.6,0.1,2.4
	c0,11.8,9.6,21.3,21.3,21.3c11.8,0,21.3-9.6,21.3-21.3c-1.1-54.2-46-97.2-100.2-96.1C411.2,0,410.6,0,409.9,0z"/>
<path class="st0" d="M42.7,96c1-30.5,26.5-54.4,57-53.5c0.8,0,1.6,0.1,2.4,0.1c11.8,0,21.3-9.6,21.3-21.3S113.9,0,102.1,0
	C47.9-2.2,2.3,39.9,0.1,94.1C0,94.7,0,95.4,0,96c0,11.8,9.6,21.3,21.3,21.3S42.7,107.8,42.7,96z"/>
<path class="st0" d="M277.3,247.2v-97.8c0-11.8-9.6-21.3-21.3-21.3c-11.8,0-21.3,9.6-21.3,21.3V256c0,5.7,2.2,11.1,6.3,15.1l64,64
	c8.5,8.2,22,8,30.2-0.5c8-8.3,8-21.4,0-29.6L277.3,247.2z"/>
</svg>
