<?xml version="1.0" encoding="utf-8"?>
<!-- Generator: Adobe Illustrator 23.0.0, SVG Export Plug-In . SVG Version: 6.00 Build 0)  -->
<svg version="1.1" id="Layer_1" xmlns="http://www.w3.org/2000/svg" xmlns:xlink="http://www.w3.org/1999/xlink" x="0px" y="0px"
	 viewBox="0 0 512 512" style="enable-background:new 0 0 512 512;" xml:space="preserve">
<style type="text/css">
	.st0{fill:#FFFFFF;}
</style>
<g id="_01_align_center">
	<path class="st0" d="M496.2,345.6l-55.5-199.9C411.4,39.8,301.9-22.2,196,7.1C125.1,26.8,70.9,83.9,55,155.7L12.1,348.8
		c-7.7,34.5,14.1,68.7,48.6,76.3c4.5,1,9.2,1.5,13.9,1.5h76.9c11.7,57.7,68,95,125.8,83.3c42-8.5,74.8-41.3,83.3-83.3h74
		c35.3,0,64-28.7,64-64C498.5,356.9,497.7,351.1,496.2,345.6L496.2,345.6z M256,469.3c-27-0.1-51.1-17.2-60.1-42.7h120.1
		C307.1,452.1,283,469.2,256,469.3z M451.5,375.6c-4,5.4-10.4,8.5-17.1,8.4H74.5c-11.8,0-21.3-9.6-21.3-21.3c0-1.6,0.2-3.1,0.5-4.6
		L96.6,165C115.3,80.8,198.8,27.7,283,46.4c56.3,12.5,101.1,55.1,116.6,110.6L455,356.9C456.8,363.4,455.5,370.3,451.5,375.6z"/>
</g>
</svg>
