<?xml version="1.0" encoding="utf-8"?>
<!-- Generator: Adobe Illustrator 23.0.0, SVG Export Plug-In . SVG Version: 6.00 Build 0)  -->
<svg version="1.1" id="Layer_1" xmlns="http://www.w3.org/2000/svg" xmlns:xlink="http://www.w3.org/1999/xlink" x="0px" y="0px"
	 viewBox="0 0 512 512" style="enable-background:new 0 0 512 512;" xml:space="preserve">
<style type="text/css">
	.st0{fill:#FFFFFF;}
</style>
<path class="st0" d="M362.7,214.2c-82.3,0-149.3,67-149.3,149.3c0,81.9,67,148.5,149.3,148.5S512,445,512,362.7
	C512,280.8,445,214.2,362.7,214.2z M362.7,469.3c-58.8,0-106.7-47.5-106.7-105.8c0-58.8,47.9-106.7,106.7-106.7
	s106.7,47.5,106.7,105.8C469.3,421.5,421.5,469.3,362.7,469.3z M399.1,368.9c8.3,8.3,8.3,21.8,0,30.2c-4.2,4.2-9.6,6.3-15.1,6.3
	c-5.5,0-10.9-2.1-15.1-6.3l-21.3-21.3c-4-4-6.3-9.4-6.3-15.1V320c0-11.8,9.5-21.3,21.3-21.3S384,308.2,384,320v33.8L399.1,368.9z
	 M512,149.3V192c0,11.8-9.5,21.3-21.3,21.3c-11.8,0-21.3-9.6-21.3-21.3v-42.7c0-35.3-28.7-64-64-64H106.7c-35.3,0-64,28.7-64,64
	v21.3h192c11.8,0,21.3,9.6,21.3,21.3s-9.6,21.3-21.3,21.3h-192v192c0,35.3,28.7,64,64,64H192c11.8,0,21.3,9.6,21.3,21.3
	S203.8,512,192,512h-85.3C47.9,512,0,464.1,0,405.3v-256C0,90.5,47.9,42.7,106.7,42.7H128V21.3C128,9.6,137.6,0,149.3,0
	s21.3,9.6,21.3,21.3v21.3h170.7V21.3c0-11.8,9.5-21.3,21.3-21.3C374.5,0,384,9.6,384,21.3v21.3h21.3C464.1,42.7,512,90.5,512,149.3
	L512,149.3z"/>
</svg>
