<?xml version="1.0" encoding="utf-8"?>
<!-- Generator: Adobe Illustrator 23.0.0, SVG Export Plug-In . SVG Version: 6.00 Build 0)  -->
<svg version="1.1" id="Layer_1" xmlns="http://www.w3.org/2000/svg" xmlns:xlink="http://www.w3.org/1999/xlink" x="0px" y="0px"
	 viewBox="0 0 512 512" style="enable-background:new 0 0 512 512;" xml:space="preserve">
<style type="text/css">
	.st0{fill:#FFFFFF;}
</style>
<path class="st0" d="M470.5,111.6L313.2,36.6c-34.6-20.7-77.7-21.1-112.7-1L41.5,111.6c-0.6,0.3-1.2,0.6-1.8,1
	C1.9,134.1-11.2,182.2,10.4,220c7.3,12.8,18.1,23.3,31.1,30.3l43.9,20.9v104.5c0,46.7,30.4,88,75.1,101.9
	c31.1,9,63.3,13.4,95.6,13.1c32.3,0.4,64.5-4,95.6-12.9c44.6-13.9,75-55.2,75.1-101.9V271.1l42.7-20.4v176
	c0,11.8,9.6,21.3,21.3,21.3s21.3-9.6,21.3-21.3v-256C512.1,145.6,492.4,122.5,470.5,111.6z M384,375.8c0,28-18.1,52.7-44.8,61.1
	c-27,7.7-55.1,11.5-83.2,11.1c-28.1,0.3-56.2-3.4-83.2-11.1c-26.7-8.4-44.8-33.1-44.8-61.1v-84.3l70.8,33.7
	c17.5,10.4,37.4,15.8,57.7,15.8c19.3,0.1,38.3-5,55-14.8l72.6-34.7V375.8z M452.3,211.7l-160.9,76.8c-22.4,13.1-50.2,12.7-72.3-1
	L61.6,212.7c-17.5-9.5-24.1-31.4-14.6-48.9c3.2-5.9,8-10.9,13.8-14.2l159.9-76.4c22.4-13,50.2-12.7,72.3,1l157.3,74.9
	c11.6,6.4,18.8,18.6,19,31.8C469.4,193.4,462.9,205.1,452.3,211.7L452.3,211.7z"/>
</svg>
