<?xml version="1.0" encoding="utf-8"?>
<!-- Generator: Adobe Illustrator 23.0.0, SVG Export Plug-In . SVG Version: 6.00 Build 0)  -->
<svg version="1.1" id="Layer_1" xmlns="http://www.w3.org/2000/svg" xmlns:xlink="http://www.w3.org/1999/xlink" x="0px" y="0px"
	 viewBox="0 0 512 512" style="enable-background:new 0 0 512 512;" xml:space="preserve">
<style type="text/css">
	.st0{fill:#FFFFFF;}
</style>
<path class="st0" d="M490.7,320h-14.2c-5.3,0-10.6,0.4-15.9,1.2L310.2,208.5l36-34.5c8.5-8.1,8.8-21.7,0.7-30.2
	c-8.2-8.5-21.7-8.8-30.2-0.7l-89,85.2c-4.4,4.4-10.5,6.7-16.8,6.2c-6.4-0.5-11.9-3.7-15.8-9.1c-5.8-8.1-4.1-20.8,3.6-28.5
	l100.3-94.5c19-17.9,48.7-22.2,72-10.6l49.4,24.7c14.7,7.4,31.2,11.2,47.7,11.2h22.5c11.8,0,21.3-9.5,21.3-21.3s-9.5-21.3-21.3-21.3
	h-22.5c-9.9,0-19.8-2.3-28.6-6.7l-49.4-24.7c-38.9-19.5-88.6-12.2-120.3,17.7l-13.2,12.4l-14.9-13.6c-19.6-17.9-45-27.7-72.3-27.7
	c-16.4,0-32.9,3.9-47.5,11.2L72.5,78.5c-8.9,4.4-18.8,6.7-28.7,6.7H21.3C9.5,85.3,0,94.8,0,106.6S9.5,128,21.3,128h22.5
	c16.4,0,33-3.9,47.7-11.2L141,92c21.8-11,52.4-8,72,9.9l12.5,11.4L169,166.4c-22.9,22.9-26.5,59-8.5,84
	c11.1,15.4,33.1,26.9,52.1,26.9c16.9,0,33.2-6.7,44.9-18.4l21.5-20.5l135.4,101.5c-0.7,0.5-132.2,99.1-132.2,99.1
	c-15.4,12-36.9,12-52.7-0.2L99.5,341.3c-18.3-13.8-41.1-21.3-64-21.3H21.3C9.5,320,0,329.5,0,341.3c0,11.8,9.5,21.3,21.3,21.3h14.2
	c13.8,0,27.4,4.5,38.4,12.8l129.6,97.2c15.5,12,34,18,52.5,18c18.4,0,36.8-6,52-17.8l130-97.5c11-8.3,24.6-12.8,38.4-12.8h14.2
	c11.8,0,21.3-9.5,21.3-21.3C512,329.5,502.5,320,490.7,320L490.7,320z"/>
</svg>
