<?xml version="1.0" encoding="utf-8"?>
<!-- Generator: Adobe Illustrator 23.0.0, SVG Export Plug-In . SVG Version: 6.00 Build 0)  -->
<svg version="1.1" id="Layer_1" xmlns="http://www.w3.org/2000/svg" xmlns:xlink="http://www.w3.org/1999/xlink" x="0px" y="0px"
	 viewBox="0 0 502 269" style="enable-background:new 0 0 502 269;" xml:space="preserve">
<style type="text/css">
	.st0{fill:#15803D;}
</style>
<g>
	<g>
		<g>
			<circle class="st0" cx="166.1" cy="43.4" r="25.2"/>
		</g>
		<path class="st0" d="M80.3,153.1c-24.2,0-32-12.1-32-27.6c0-6.7,1.3-14.8,4.9-21.9l13.1,4.6c-1.7,4.6-2.6,8.7-2.6,12.3
			c0,8,4.8,12,18.5,12h16.3c14,0,19.5-2.5,19.5-8.3c0-5.9-2.2-12.1-4.2-19.7l15-4.4c2.5,7.2,4.5,15.7,4.5,23.4
			c0,17-8.4,29.6-34.8,29.6H80.3z M81.6,166.4c0-4.2,3-7.7,7.9-7.7c4.7,0,7.8,3.4,7.8,7.7c0,4.2-3,7.7-7.8,7.7
			C84.7,174.1,81.6,170.6,81.6,166.4z"/>
		<path class="st0" d="M143.5,153.1v-74H188L159.8,153h-16.3V153.1z"/>
		<path class="st0" d="M235.4,79.1h16.3v60c0,21.9-11.8,36.6-33.6,36.6c-20.6,0-32.2-12.6-32.2-31.5c0-10.8,3.1-20.3,6.7-26.6
			l13.1,4.6c-2.1,4.6-4.1,11.1-4.1,17.1c0,10.7,6.4,15.7,17.2,15.7c9.5,0,16.5-5,16.5-14.3L235.4,79.1L235.4,79.1z"/>
		<path class="st0" d="M296.2,84.3c0,8-4.4,13.8-13.9,13.8c-2.4,0-5.5-0.6-6.9-1.4l1-5.6c2,0.5,3.9,0.8,7,0.8c5.5,0,8.1-2.1,7.4-5.6
			c-1.2,1.8-3.1,2.8-5.6,2.8c-4.7,0-7.2-2.7-7.2-6.6c0-6.1,3.7-10,9.4-10C292.5,72.5,296.2,76.9,296.2,84.3z M290.5,81.9
			c-0.3-1.5-2.3-2.4-3.8-2.4c-2.5,0-3.9,1.2-3.9,2c0,0.9,1.4,1.3,3.5,1.3C288,82.8,289.3,82.5,290.5,81.9z"/>
		<path class="st0" d="M311.7,132.5l1.7,0.9l-1,18.7l-1.7,1h-6.1c-3.9,12.6-13.6,22.3-32.8,22.3c-6.8,0-13.2-1.1-16.1-2l1-17.8
			c5,0.7,9.5,1.2,15.2,1.2c12.6,0,19.4-2.5,22.3-5.6h-14.8c-12.5,0-18.1-8.8-18.1-18.8c0-15.3,10.2-27.3,23.4-27.3
			c13.1,0,20.6,12.6,21.9,27.4L311.7,132.5L311.7,132.5z M281.7,132.5h12.1c-2.4-4.8-6.4-7.4-11-7.4c-6.3,0-9.3,3.4-9.3,5.3
			C273.5,131.9,277.2,132.5,281.7,132.5z"/>
		<path class="st0" d="M374.8,132.8l-1,20l-1.7,0.3h-2.5c-13.3,0-17.7-3.9-28.8-16.7c-1.2,9.5-7.6,16.7-26.8,16.7h-3.2l-1.7-0.3
			l1-20l1.7-0.3h3c12.1,0,16.6-0.5,18.5-3.7l-15.1-17.7V96.3L453.7,72v18l-117.9,15.1l16.4,17.3c7.9,8.2,11.8,10.1,20.9,10.1
			L374.8,132.8z"/>
		<path class="st0" d="M449.7,109.6c2.3,5.2,3.7,12.8,3.7,18.1c0,16.5-8.2,25.4-21.5,25.4c-8.7,0-13.9-3-16-9.5
			c-2,6.5-6.7,9.5-14.1,9.5c-7.3,0-12-3-14-9.4c-2.3,6.4-8,9.4-15.7,9.4l-1.7-0.3l1-20l1.7-0.3c6.6,0,9.7-0.9,9.7-6.5v-10.8h15.3
			V126c0,5.5,2,6.5,6.2,6.5c4.7,0,6.6-0.9,6.6-6.5v-10.8h15.3V126c0,5.5,2,6.5,6.2,6.5c3.8,0,5.9-1.9,5.9-5.2
			c0-3.1-1.5-8.7-2.7-12.6L449.7,109.6z"/>
		<g>
			<path class="st0" d="M94.1,186.9h5.5c3.9,2.8,5.8,6.9,5.8,12.3c0,1.8-0.3,3.5-0.9,5.2c-3.4-3.5-6.2-5.6-8.5-6.3s-4.3-1-5.9-1
				c-1.1,0-1.9,0.1-2.1,0.2c-0.3,0.1-0.4,0.6-0.5,1.5c-0.1,0.8-0.2,1.6-0.2,2.3c0,1,0.2,2.3,0.7,3.8c0.4,1.6,1.2,2.6,2.3,3
				c1,0.5,2.3,0.9,3.9,1.4c1.5,0.5,3.8,0.9,7,1.2c2,0.2,3.4,0.5,4.2,0.8c0.6,0.2,1.3,0.7,2,1.6c0.7,0.8,1.7,2.4,3,4.7
				c-3.5,13.1-14,23-31.5,29.8l-3.5,0.2c-3.6,0-7.3-1.3-11.1-3.8c-3.8-2.6,0.8-5.4-5-11.7l0.3-28c8.3,2.7,8.3,27,18.6,33
				c2.5,1.5,4,2.2,4.4,2.2c2.6,0,5.6-1.1,9.2-3.4c3.5-2.2,5.3-5,5.3-8.2c0-1.4-0.5-2.5-1.4-3.1s-2.8-1.1-5.6-1.6
				c-4.4-0.7-7.7-2.3-9.9-4.8c-2.1-2.5-3.2-5.1-3.2-7.8c0-3.3,1.6-7.7,4.9-13.3C84.8,191.4,88.9,188.1,94.1,186.9z"/>
			<path class="st0" d="M113.8,191.3l11.6-3.7l-0.3,13.1v8.5l5.5-5.8h0.4c4.7,1.4,7.8,3,9.3,4.6s2.2,4.4,2.2,8.4
				c0,1.4-0.2,3.8-0.7,7.3c-0.3,1.8-0.5,4.4-0.6,7.8c-3.4,2.8-7.1,5.4-11.2,7.9c1-8.2,1.6-13.4,1.8-15.8l-1.3-8.2
				c-0.1-0.5-0.8-2.5-2-6c-1.6,2.1-2.7,3.5-3.4,4.2v8.7c0,0.1,0,0.9-0.1,2.4c-0.1,1.4-0.1,2.5-0.1,3.4c0,0.7,0.1,2.1,0.2,4.1
				c-2.5,0.1-6.6,0.6-12.3,1.4c0.3-2.8,0.6-6.5,0.7-11.1C113.6,218.2,113.7,207.7,113.8,191.3z"/>
			<path class="st0" d="M174.4,204.2l-1.9,3.2c1.7,0.5,3.1,1.6,4.2,3.3c1.1,1.7,1.7,3.8,1.7,6.4c0,2.4-0.5,4.7-1.4,6.8
				c-1,2.1-2,3.6-3.1,4.5c-1.1,1-3,2.1-5.7,3.5c-0.5,0.2-1.2,0.7-2,1.3c-0.7,0.5-1.2,0.9-1.7,1.1c-4.5,0-8.6-1.3-12.2-3.8
				c-3.7-2.4-5.5-5.5-5.5-9.2c0-6.1,4.2-11.9,12.6-17.4c3.8,0.3,7.1,0.5,9.8,0.5C171,204.3,172.8,204.3,174.4,204.2z M159.6,209.7
				c-1.2,2-1.8,4.2-1.8,6.3c0,6,3,9.6,9.1,10.9c0.6-2.3,0.9-4.5,0.9-6.8c0-3.5-0.8-6.1-2.5-7.6C163.6,211.1,161.7,210.1,159.6,209.7
				z"/>
			<path class="st0" d="M209.7,204.2l-1.9,3.2c1.7,0.5,3.1,1.6,4.2,3.3c1.1,1.7,1.7,3.8,1.7,6.4c0,2.4-0.5,4.7-1.4,6.8
				c-1,2.1-2,3.6-3.1,4.5c-1.1,1-3,2.1-5.7,3.5c-0.5,0.2-1.2,0.7-2,1.3c-0.7,0.5-1.2,0.9-1.7,1.1c-4.5,0-8.6-1.3-12.2-3.8
				c-3.7-2.4-5.5-5.5-5.5-9.2c0-6.1,4.2-11.9,12.6-17.4c3.8,0.3,7.1,0.5,9.8,0.5C206.3,204.3,208.1,204.3,209.7,204.2z M194.9,209.7
				c-1.2,2-1.8,4.2-1.8,6.3c0,6,3,9.6,9.1,10.9c0.6-2.3,0.9-4.5,0.9-6.8c0-3.5-0.8-6.1-2.5-7.6C198.9,211.1,197,210.1,194.9,209.7z"
				/>
			<path class="st0" d="M220,191.1l6.8-1.7l5.1-1.4l-1.4,25.4l-0.5,10c1.7,1.2,20,7.3,22.1,8.6l0,0c-2.7,2.6,0.9,6.5-1,9
				c-3.2-0.7-27.8-8.1-29.3-10.2c-1.6-2.1-2.3-4.9-2.3-8.4c0-1.4,0.1-3.7,0.2-6.9C219.7,212.4,219.8,204.3,220,191.1z"/>
			<path class="st0" d="M272.5,209.4c-1.3-0.3-10.4,0.5-11.9,0.2h-0.9c-31,2.8-2.9-18.4,0.4-21.3c0.3-0.2,0.6-0.4,0.9-0.5
				c9.7-2.2,64-0.8,70.6-0.8c2.2,0,4.2,0.2,6.2,0.7c1.9,0.4,3.4,1.2,4.5,2.3s2,2.6,2.7,4.8c0.7,2.1,1.2,4.7,1.6,7.7l0.8,6.2l2.3,16
				c0.8,5.5,1.6,9.9,2.4,13.3c0.3,1.1-0.4,2.2-1.4,2.5c-4.5,1.4-8.1,2.6-10.8,3.6c-1.3,0.5-2.8-0.4-2.8-1.9
				c-0.1-3.4-0.4-8.8-0.9-16.3c-0.1-1.1-0.9-1.9-2-2c-3.3-0.2-5.6-0.3-6.9-0.3c-1.7,0.1-3.8,0.2-6.5,0.3c-2.4,0.1-4.6,0.3-6.7,0.4
				c-0.5,0-1.1,0.3-1.4,0.7c-8.5,9.3-15.3,15.4-20.5,18.5c-5.4,3.1-10.5,4.7-15.2,4.7c-4.6,0-8.4-1.1-11.3-3.4
				c-3-2.3-4.4-4.7-4.4-7.1c0-2.8,1.6-5.9,4.7-9.4c3.1-3.4,7.1-6.4,12.2-9c5-2.6,11-3.8,18-3.8c1.7,0,3.2,0,4.7,0.1s3.2,0.2,5.1,0.4
				c1.5,0.2,3,0.3,4.5,0.5c0.8,0.1,1.6-0.2,2-0.9l6.2-9c0,0,0,0,0-0.1c1.2-1.8-0.7-3.9-2.6-3.1c-1.8,0.8-3.9,0.8-6.2-0.3
				c-2.9-1.4-30.9,4.9-36.3,6C272.9,209.4,272.7,209.4,272.5,209.4z M279.1,225.7c-0.6,0.1-1.2,0.4-1.5,0.9
				c-1.4,2.3-2.1,4.5-2.1,6.8c0,2.6,0.9,4.6,2.7,5.8c1.8,1.2,3.9,1.8,6.3,1.8c1.7,0,4-0.2,6.8-0.6c0.5-0.1,1-0.3,1.3-0.7
				c0.6-0.7,1.8-2,3.6-3.8c1.8-1.9,4.3-4.6,7.4-8.2c1.2-1.4,0.2-3.6-1.7-3.5C293.1,224.5,285.5,225,279.1,225.7z M319.6,214.8
				c-0.9,1.3-0.2,3.1,1.3,3.3c1.2,0.2,2.5,0.4,4,0.7c2.4,0.4,4.9,0.9,7.6,1.5c1.4,0.3,2.7-0.9,2.5-2.3c-0.7-4.9-1.6-10-2.7-15.3
				c-0.4-1.8-2.8-2.3-3.8-0.7C326.3,205.5,323.3,209.8,319.6,214.8z"/>
			<path class="st0" d="M355.3,205.9c3.5-0.6,6-1,7.7-1.3s3.2-0.7,4.7-1.1c0.4,2.4,0.6,4.4,0.7,6c1.9-1.2,3.5-2.3,4.9-3.4
				c1.4-1.1,2.5-2.1,3.4-3.2c3.1,0.8,5.7,2.1,7.6,3.8s2.8,4.4,2.8,8.3c0,6.9-3.2,12.9-9.7,18.2l-4.5-2l-2.6-1.1
				c-2.1,8.7-3.5,15.6-4.3,20.7l-9.5-0.9c0.1-1.1,0.3-3.4,0.6-6.9c0.3-3.6,0.5-6.7,0.6-9.4s0.2-5,0.2-6.8
				C357.8,216.9,357,209.9,355.3,205.9z M368.4,214.6c0.2,1.4,0.3,2.7,0.3,4v4.3c1.6,0.6,3.8,1.3,6.4,2c0.2-1.2,0.3-2.4,0.3-3.6
				c0-5.4-0.9-9-2.8-10.8C371.2,212,369.8,213.4,368.4,214.6z"/>
			<path class="st0" d="M389.1,205.9c3.5-0.6,6-1,7.7-1.3s3.2-0.7,4.7-1.1c0.4,2.4,0.6,4.4,0.7,6c1.9-1.2,3.5-2.3,4.9-3.4
				c1.4-1.1,2.5-2.1,3.4-3.2c3.1,0.8,5.7,2.1,7.6,3.8s2.8,4.4,2.8,8.3c0,6.9-3.2,12.9-9.7,18.2l-4.5-2l-2.6-1.1
				c-2.1,8.7-3.5,15.6-4.3,20.7l-9.5-0.9c0.1-1.1,0.3-3.4,0.6-6.9c0.3-3.6,0.5-6.7,0.6-9.4s0.2-5,0.2-6.8
				C391.6,216.9,390.8,209.9,389.1,205.9z M402.2,214.6c0.2,1.4,0.3,2.7,0.3,4v4.3c1.6,0.6,3.8,1.3,6.4,2c0.2-1.2,0.3-2.4,0.3-3.6
				c0-5.4-0.9-9-2.8-10.8C405,212,403.6,213.4,402.2,214.6z"/>
		</g>
	</g>
</g>
</svg>
